<svg width="334" height="76" viewBox="0 0 334 76" fill="none" xmlns="http://www.w3.org/2000/svg">
<g filter="url(#filter0_d_4_106)">
<mask id="path-1-outside-1_4_106" maskUnits="userSpaceOnUse" x="0" y="0" width="334" height="72" fill="black">
<rect fill="white" width="334" height="72"/>
<path d="M3 56.4286V9.28571H6.15021V6.14286H9.30042V3H28.2017V15.5714H15.6008V18.7143H28.2017V34.4286H15.6008V56.4286H3Z"/>
<path d="M31.8559 56.4286V3H44.4568V56.4286H31.8559Z"/>
<path d="M63.4841 47V31.2857H60.3338V47H63.4841ZM54.0334 56.4286V53.2857H50.8832V50.1429H47.733V25H50.8832V21.8571H54.0334V18.7143H76.0849V56.4286H54.0334Z"/>
<path d="M95.1122 37.5714V28.1429H91.962V37.5714H95.1122ZM79.3611 69V15.5714H101.413V18.7143H104.563V21.8571H107.713V43.8571H104.563V47H101.413V50.1429H91.962V69H79.3611Z"/>
<path d="M126.74 37.5714V28.1429H123.59V37.5714H126.74ZM110.989 69V15.5714H133.041V18.7143H136.191V21.8571H139.341V43.8571H136.191V47H133.041V50.1429H123.59V69H110.989Z"/>
<path d="M152.068 69V56.4286H158.368V50.1429H148.918V47H145.768V43.8571H142.617V15.5714H155.218V37.5714H158.368V15.5714H170.969V62.7143H167.819V65.8571H164.669V69H152.068Z"/>
<path d="M177.396 56.4286V53.2857H174.245V9.28571H177.396V6.14286H180.546V3H196.297V6.14286H199.447V9.28571H202.597V25H189.997V12.4286H186.846V47H189.997V31.2857H202.597V50.1429H199.447V53.2857H196.297V56.4286H177.396Z"/>
<path d="M205.874 56.4286V31.2857H209.024V28.1429H212.174V25H231.075V34.4286H221.625V37.5714H218.474V56.4286H205.874Z"/>
<path d="M250.103 47V31.2857H246.952V47H250.103ZM240.652 56.4286V53.2857H237.502V50.1429H234.352V25H237.502V21.8571H240.652V18.7143H262.703V56.4286H240.652Z"/>
<path d="M275.304 56.4286V34.4286H265.854V18.7143H275.304V9.28571H278.454V6.14286H281.605V3H300.506V15.5714H287.905V18.7143H300.506V34.4286H287.905V56.4286H275.304Z"/>
<path d="M318.399 56.4286V53.2857H315.249V50.1429H312.099V31.2857H305.798V18.7143H312.099V3H324.7V18.7143H331V31.2857H324.7V43.8571H331V56.4286H318.399Z"/>
</mask>
<path d="M3 56.4286V9.28571H6.15021V6.14286H9.30042V3H28.2017V15.5714H15.6008V18.7143H28.2017V34.4286H15.6008V56.4286H3Z" fill="url(#paint0_linear_4_106)"/>
<path d="M31.8559 56.4286V3H44.4568V56.4286H31.8559Z" fill="url(#paint1_linear_4_106)"/>
<path d="M63.4841 47V31.2857H60.3338V47H63.4841ZM54.0334 56.4286V53.2857H50.8832V50.1429H47.733V25H50.8832V21.8571H54.0334V18.7143H76.0849V56.4286H54.0334Z" fill="url(#paint2_linear_4_106)"/>
<path d="M95.1122 37.5714V28.1429H91.962V37.5714H95.1122ZM79.3611 69V15.5714H101.413V18.7143H104.563V21.8571H107.713V43.8571H104.563V47H101.413V50.1429H91.962V69H79.3611Z" fill="url(#paint3_linear_4_106)"/>
<path d="M126.74 37.5714V28.1429H123.59V37.5714H126.74ZM110.989 69V15.5714H133.041V18.7143H136.191V21.8571H139.341V43.8571H136.191V47H133.041V50.1429H123.59V69H110.989Z" fill="url(#paint4_linear_4_106)"/>
<path d="M152.068 69V56.4286H158.368V50.1429H148.918V47H145.768V43.8571H142.617V15.5714H155.218V37.5714H158.368V15.5714H170.969V62.7143H167.819V65.8571H164.669V69H152.068Z" fill="url(#paint5_linear_4_106)"/>
<path d="M177.396 56.4286V53.2857H174.245V9.28571H177.396V6.14286H180.546V3H196.297V6.14286H199.447V9.28571H202.597V25H189.997V12.4286H186.846V47H189.997V31.2857H202.597V50.1429H199.447V53.2857H196.297V56.4286H177.396Z" fill="url(#paint6_linear_4_106)"/>
<path d="M205.874 56.4286V31.2857H209.024V28.1429H212.174V25H231.075V34.4286H221.625V37.5714H218.474V56.4286H205.874Z" fill="url(#paint7_linear_4_106)"/>
<path d="M250.103 47V31.2857H246.952V47H250.103ZM240.652 56.4286V53.2857H237.502V50.1429H234.352V25H237.502V21.8571H240.652V18.7143H262.703V56.4286H240.652Z" fill="url(#paint8_linear_4_106)"/>
<path d="M275.304 56.4286V34.4286H265.854V18.7143H275.304V9.28571H278.454V6.14286H281.605V3H300.506V15.5714H287.905V18.7143H300.506V34.4286H287.905V56.4286H275.304Z" fill="url(#paint9_linear_4_106)"/>
<path d="M318.399 56.4286V53.2857H315.249V50.1429H312.099V31.2857H305.798V18.7143H312.099V3H324.7V18.7143H331V31.2857H324.7V43.8571H331V56.4286H318.399Z" fill="url(#paint10_linear_4_106)"/>
<path d="M3 56.4286V9.28571H6.15021V6.14286H9.30042V3H28.2017V15.5714H15.6008V18.7143H28.2017V34.4286H15.6008V56.4286H3Z" stroke="black" stroke-width="6" mask="url(#path-1-outside-1_4_106)"/>
<path d="M31.8559 56.4286V3H44.4568V56.4286H31.8559Z" stroke="black" stroke-width="6" mask="url(#path-1-outside-1_4_106)"/>
<path d="M63.4841 47V31.2857H60.3338V47H63.4841ZM54.0334 56.4286V53.2857H50.8832V50.1429H47.733V25H50.8832V21.8571H54.0334V18.7143H76.0849V56.4286H54.0334Z" stroke="black" stroke-width="6" mask="url(#path-1-outside-1_4_106)"/>
<path d="M95.1122 37.5714V28.1429H91.962V37.5714H95.1122ZM79.3611 69V15.5714H101.413V18.7143H104.563V21.8571H107.713V43.8571H104.563V47H101.413V50.1429H91.962V69H79.3611Z" stroke="black" stroke-width="6" mask="url(#path-1-outside-1_4_106)"/>
<path d="M126.74 37.5714V28.1429H123.59V37.5714H126.74ZM110.989 69V15.5714H133.041V18.7143H136.191V21.8571H139.341V43.8571H136.191V47H133.041V50.1429H123.59V69H110.989Z" stroke="black" stroke-width="6" mask="url(#path-1-outside-1_4_106)"/>
<path d="M152.068 69V56.4286H158.368V50.1429H148.918V47H145.768V43.8571H142.617V15.5714H155.218V37.5714H158.368V15.5714H170.969V62.7143H167.819V65.8571H164.669V69H152.068Z" stroke="black" stroke-width="6" mask="url(#path-1-outside-1_4_106)"/>
<path d="M177.396 56.4286V53.2857H174.245V9.28571H177.396V6.14286H180.546V3H196.297V6.14286H199.447V9.28571H202.597V25H189.997V12.4286H186.846V47H189.997V31.2857H202.597V50.1429H199.447V53.2857H196.297V56.4286H177.396Z" stroke="black" stroke-width="6" mask="url(#path-1-outside-1_4_106)"/>
<path d="M205.874 56.4286V31.2857H209.024V28.1429H212.174V25H231.075V34.4286H221.625V37.5714H218.474V56.4286H205.874Z" stroke="black" stroke-width="6" mask="url(#path-1-outside-1_4_106)"/>
<path d="M250.103 47V31.2857H246.952V47H250.103ZM240.652 56.4286V53.2857H237.502V50.1429H234.352V25H237.502V21.8571H240.652V18.7143H262.703V56.4286H240.652Z" stroke="black" stroke-width="6" mask="url(#path-1-outside-1_4_106)"/>
<path d="M275.304 56.4286V34.4286H265.854V18.7143H275.304V9.28571H278.454V6.14286H281.605V3H300.506V15.5714H287.905V18.7143H300.506V34.4286H287.905V56.4286H275.304Z" stroke="black" stroke-width="6" mask="url(#path-1-outside-1_4_106)"/>
<path d="M318.399 56.4286V53.2857H315.249V50.1429H312.099V31.2857H305.798V18.7143H312.099V3H324.7V18.7143H331V31.2857H324.7V43.8571H331V56.4286H318.399Z" stroke="black" stroke-width="6" mask="url(#path-1-outside-1_4_106)"/>
</g>
<defs>
<filter id="filter0_d_4_106" x="0" y="0" width="334" height="76" filterUnits="userSpaceOnUse" color-interpolation-filters="sRGB">
<feFlood flood-opacity="0" result="BackgroundImageFix"/>
<feColorMatrix in="SourceAlpha" type="matrix" values="0 0 0 0 0 0 0 0 0 0 0 0 0 0 0 0 0 0 127 0" result="hardAlpha"/>
<feOffset dy="4"/>
<feComposite in2="hardAlpha" operator="out"/>
<feColorMatrix type="matrix" values="0 0 0 0 0 0 0 0 0 0 0 0 0 0 0 0 0 0 1 0"/>
<feBlend mode="normal" in2="BackgroundImageFix" result="effect1_dropShadow_4_106"/>
<feBlend mode="normal" in="SourceGraphic" in2="effect1_dropShadow_4_106" result="shape"/>
</filter>
<linearGradient id="paint0_linear_4_106" x1="167.109" y1="-9.61834" x2="167.109" y2="68.9375" gradientUnits="userSpaceOnUse">
<stop offset="0.6" stop-color="white"/>
<stop offset="0.6" stop-color="#E3E3E3"/>
<stop offset="1" stop-color="#E3E3E3"/>
</linearGradient>
<linearGradient id="paint1_linear_4_106" x1="167.109" y1="-9.61834" x2="167.109" y2="68.9375" gradientUnits="userSpaceOnUse">
<stop offset="0.6" stop-color="white"/>
<stop offset="0.6" stop-color="#E3E3E3"/>
<stop offset="1" stop-color="#E3E3E3"/>
</linearGradient>
<linearGradient id="paint2_linear_4_106" x1="167.109" y1="-9.61834" x2="167.109" y2="68.9375" gradientUnits="userSpaceOnUse">
<stop offset="0.6" stop-color="white"/>
<stop offset="0.6" stop-color="#E3E3E3"/>
<stop offset="1" stop-color="#E3E3E3"/>
</linearGradient>
<linearGradient id="paint3_linear_4_106" x1="167.109" y1="-9.61834" x2="167.109" y2="68.9375" gradientUnits="userSpaceOnUse">
<stop offset="0.6" stop-color="white"/>
<stop offset="0.6" stop-color="#E3E3E3"/>
<stop offset="1" stop-color="#E3E3E3"/>
</linearGradient>
<linearGradient id="paint4_linear_4_106" x1="167.109" y1="-9.61834" x2="167.109" y2="68.9375" gradientUnits="userSpaceOnUse">
<stop offset="0.6" stop-color="white"/>
<stop offset="0.6" stop-color="#E3E3E3"/>
<stop offset="1" stop-color="#E3E3E3"/>
</linearGradient>
<linearGradient id="paint5_linear_4_106" x1="167.109" y1="-9.61834" x2="167.109" y2="68.9375" gradientUnits="userSpaceOnUse">
<stop offset="0.6" stop-color="white"/>
<stop offset="0.6" stop-color="#E3E3E3"/>
<stop offset="1" stop-color="#E3E3E3"/>
</linearGradient>
<linearGradient id="paint6_linear_4_106" x1="167.109" y1="-9.61834" x2="167.109" y2="68.9375" gradientUnits="userSpaceOnUse">
<stop offset="0.6" stop-color="white"/>
<stop offset="0.6" stop-color="#E3E3E3"/>
<stop offset="1" stop-color="#E3E3E3"/>
</linearGradient>
<linearGradient id="paint7_linear_4_106" x1="167.109" y1="-9.61834" x2="167.109" y2="68.9375" gradientUnits="userSpaceOnUse">
<stop offset="0.6" stop-color="white"/>
<stop offset="0.6" stop-color="#E3E3E3"/>
<stop offset="1" stop-color="#E3E3E3"/>
</linearGradient>
<linearGradient id="paint8_linear_4_106" x1="167.109" y1="-9.61834" x2="167.109" y2="68.9375" gradientUnits="userSpaceOnUse">
<stop offset="0.6" stop-color="white"/>
<stop offset="0.6" stop-color="#E3E3E3"/>
<stop offset="1" stop-color="#E3E3E3"/>
</linearGradient>
<linearGradient id="paint9_linear_4_106" x1="167.109" y1="-9.61834" x2="167.109" y2="68.9375" gradientUnits="userSpaceOnUse">
<stop offset="0.6" stop-color="white"/>
<stop offset="0.6" stop-color="#E3E3E3"/>
<stop offset="1" stop-color="#E3E3E3"/>
</linearGradient>
<linearGradient id="paint10_linear_4_106" x1="167.109" y1="-9.61834" x2="167.109" y2="68.9375" gradientUnits="userSpaceOnUse">
<stop offset="0.6" stop-color="white"/>
<stop offset="0.6" stop-color="#E3E3E3"/>
<stop offset="1" stop-color="#E3E3E3"/>
</linearGradient>
</defs>
</svg>
