<svg width="32" height="34" viewBox="0 0 32 34" fill="none" xmlns="http://www.w3.org/2000/svg">
<g filter="url(#filter0_d_7_88)">
<path d="M21.8182 1.45459L21.8182 8.72732L21.8182 10.1819L30.5454 10.1819L30.5454 21.8182L21.8182 21.8182L21.8182 30.5455L16 30.5455L16 27.6364L13.0909 27.6364L13.0909 24.7273L10.1818 24.7273L10.1818 21.8182L7.27271 21.8182L7.27271 18.9091L4.36362 18.9091L4.36362 16L4.36362 13.091L7.27271 13.091L7.27271 10.1819L10.1818 10.1819L10.1818 7.27277L13.0909 7.27277L13.0909 4.36368L16 4.36368L16 1.45459L21.8182 1.45459Z" fill="white"/>
<path d="M29.0908 23.2734L29.0908 23.2725L23.2725 23.2725L23.2725 32L14.5459 32L14.5459 29.0908L11.6367 29.0908L11.6367 26.1816L8.72754 26.1816L8.72754 23.2725L5.81836 23.2725L5.81836 20.3633L2.90918 20.3633L2.90918 17.4541L-7.62943e-07 17.4541L-6.35821e-07 14.5459L2.90918 14.5459L2.90918 11.6367L5.81836 11.6367L5.81836 8.72754L8.72754 8.72754L8.72754 5.81836L11.6367 5.81836L11.6367 2.90918L14.5459 2.90918L14.5459 6.35822e-07L23.2725 1.01727e-06L23.2725 8.72754L32 8.72754L32 23.2734L29.0908 23.2734ZM20.3633 11.6367L20.3633 2.90918L17.4541 2.90918L17.4541 5.81836L14.5459 5.81836L14.5459 8.72754L11.6367 8.72754L11.6367 11.6367L8.72754 11.6367L8.72754 14.5459L5.81836 14.5459L5.81836 17.4541L8.72754 17.4541L8.72754 20.3633L11.6367 20.3633L11.6367 23.2725L14.5459 23.2725L14.5459 26.1816L17.4541 26.1816L17.4541 29.0908L20.3633 29.0908L20.3633 20.3633L29.0908 20.3633L29.0908 11.6367L20.3633 11.6367Z" fill="black"/>
</g>
<defs>
<filter id="filter0_d_7_88" x="0" y="1.39876e-06" width="32" height="34" filterUnits="userSpaceOnUse" color-interpolation-filters="sRGB">
<feFlood flood-opacity="0" result="BackgroundImageFix"/>
<feColorMatrix in="SourceAlpha" type="matrix" values="0 0 0 0 0 0 0 0 0 0 0 0 0 0 0 0 0 0 127 0" result="hardAlpha"/>
<feOffset dy="2"/>
<feComposite in2="hardAlpha" operator="out"/>
<feColorMatrix type="matrix" values="0 0 0 0 0 0 0 0 0 0 0 0 0 0 0 0 0 0 0.25 0"/>
<feBlend mode="normal" in2="BackgroundImageFix" result="effect1_dropShadow_7_88"/>
<feBlend mode="normal" in="SourceGraphic" in2="effect1_dropShadow_7_88" result="shape"/>
</filter>
</defs>
</svg>
