<svg width="32" height="34" viewBox="0 0 32 34" fill="none" xmlns="http://www.w3.org/2000/svg">
<g filter="url(#filter0_d_7_90)">
<path d="M10.1818 1.45459L10.1818 8.72732L10.1818 10.1819L1.45453 10.1819L1.45453 21.8182L10.1818 21.8182L10.1818 30.5455L16 30.5455L16 27.6364L18.9091 27.6364L18.9091 24.7273L21.8182 24.7273L21.8182 21.8182L24.7273 21.8182L24.7273 18.9091L27.6363 18.9091L27.6363 16L27.6363 13.091L24.7273 13.091L24.7273 10.1819L21.8182 10.1819L21.8182 7.27277L18.9091 7.27277L18.9091 4.36368L16 4.36368L16 1.45459L10.1818 1.45459Z" fill="white"/>
<path d="M2.90918 23.2734L2.90918 23.2725L8.72754 23.2725L8.72754 32L17.4541 32L17.4541 29.0908L20.3633 29.0908L20.3633 26.1816L23.2725 26.1816L23.2725 23.2725L26.1816 23.2725L26.1816 20.3633L29.0908 20.3633L29.0908 17.4541L32 17.4541L32 14.5459L29.0908 14.5459L29.0908 11.6367L26.1816 11.6367L26.1816 8.72754L23.2725 8.72754L23.2725 5.81836L20.3633 5.81836L20.3633 2.90918L17.4541 2.90918L17.4541 6.35822e-07L8.72754 1.01727e-06L8.72754 8.72754L3.81493e-07 8.72754L1.01731e-06 23.2734L2.90918 23.2734ZM11.6367 11.6367L11.6367 2.90918L14.5459 2.90918L14.5459 5.81836L17.4541 5.81836L17.4541 8.72754L20.3633 8.72754L20.3633 11.6367L23.2725 11.6367L23.2725 14.5459L26.1816 14.5459L26.1816 17.4541L23.2725 17.4541L23.2725 20.3633L20.3633 20.3633L20.3633 23.2725L17.4541 23.2725L17.4541 26.1816L14.5459 26.1816L14.5459 29.0908L11.6367 29.0908L11.6367 20.3633L2.90918 20.3633L2.90918 11.6367L11.6367 11.6367Z" fill="black"/>
</g>
<defs>
<filter id="filter0_d_7_90" x="0" y="1.39876e-06" width="32" height="34" filterUnits="userSpaceOnUse" color-interpolation-filters="sRGB">
<feFlood flood-opacity="0" result="BackgroundImageFix"/>
<feColorMatrix in="SourceAlpha" type="matrix" values="0 0 0 0 0 0 0 0 0 0 0 0 0 0 0 0 0 0 127 0" result="hardAlpha"/>
<feOffset dy="2"/>
<feComposite in2="hardAlpha" operator="out"/>
<feColorMatrix type="matrix" values="0 0 0 0 0 0 0 0 0 0 0 0 0 0 0 0 0 0 0.25 0"/>
<feBlend mode="normal" in2="BackgroundImageFix" result="effect1_dropShadow_7_90"/>
<feBlend mode="normal" in="SourceGraphic" in2="effect1_dropShadow_7_90" result="shape"/>
</filter>
</defs>
</svg>
